<?xml version="1.0" encoding="UTF-8"?> <svg xmlns="http://www.w3.org/2000/svg" xmlns:xlink="http://www.w3.org/1999/xlink" width="642.48" height="385.294" viewBox="0 0 642.48 385.294"><defs><clipPath id="clip-path"><path id="Path_30602" data-name="Path 30602" d="M371.426,0c-87.511,0-161.044,61.344-181.937,144.38a13.682,13.682,0,0,1-19.327,9.141c-23.635-11.625-51.6-15.475-80.744-8.3C47.025,155.655,13.724,189.775,3.54,233.241c-18.833,80.38,40.07,152.052,115.3,152.052H558.3c46.28,0,84.137-38.265,84.184-85.232V299.9q0-1.788-.077-3.6c-1.773-42.386-33.724-76.751-74.38-81.09-5.057-.848-8.446-4.226-8.813-12.183.048-3.7.1-7.56.1-10.385C559.315,86.25,475.194,0,371.426,0Z" transform="translate(-0.001 0.001)" fill="none"></path></clipPath><clipPath id="clip-path-2"><path id="Path_27197" data-name="Path 27197" d="M591.24,1753.141H252.967s11.286,7.664,32.7,7.664H692.333c21.415,0,32.7-7.664,32.7-7.664Z" transform="translate(-252.967 -1753.141)" fill="none"></path></clipPath><linearGradient id="linear-gradient" x1="-30.074" y1="0.51" x2="-30.051" y2="0.51" gradientUnits="objectBoundingBox"><stop offset="0" stop-color="#fff"></stop><stop offset="1" stop-color="#1a1818"></stop></linearGradient></defs><g id="Group_24346" data-name="Group 24346" transform="translate(-356.477 -471.044)"><g id="Group_12139" data-name="Group 12139" transform="translate(356.477 471.044)" clip-path="url(#clip-path)"><rect id="Rectangle_8423" data-name="Rectangle 8423" width="761.619" height="680.183" transform="translate(-190.732 113.061) rotate(-32.8)" fill="#009081"></rect></g><path id="Path_27193" data-name="Path 27193" d="M669.409,796.518c2.057-4.725,1.373-7.593,1.373-7.593s-8.211-3.079-9.588-4.105-7.637-7.872-7.637-7.872l-7.419,10.612s-11.634,5.132-14.715,7.527-2.4,9.924-2.4,9.924l-.063,10.611a19.863,19.863,0,0,0,1.336,5.046,80.64,80.64,0,0,0,26.533-8.817c6.232-6.252,11.457-12.744,12.579-15.332" transform="translate(-129.875 -133.175)" fill="#7bb731"></path><path id="Path_27196" data-name="Path 27196" d="M826.371,781.148h-355.4A13.709,13.709,0,0,1,457.3,767.479V531.83a13.709,13.709,0,0,1,13.669-13.669h355.4A13.709,13.709,0,0,1,840.04,531.83V767.479a13.709,13.709,0,0,1-13.669,13.669" transform="translate(17.169 35.472)" fill="#090a0b"></path><rect id="Rectangle_6990" data-name="Rectangle 6990" width="472.07" height="8.467" transform="translate(430.575 810.461)" fill="#ecebeb"></rect><g id="Group_10080" data-name="Group 10080" transform="translate(430.578 818.931)" clip-path="url(#clip-path-2)"><rect id="Rectangle_6992" data-name="Rectangle 6992" width="9.497" height="472.093" transform="translate(-0.03 7.663) rotate(-89.777)" fill="url(#linear-gradient)"></rect></g><g id="Group_24349" data-name="Group 24349" transform="translate(488.091 568.566)"><path id="Path_27198" data-name="Path 27198" d="M876.451,813.087H522.565a1.872,1.872,0,0,1-1.872-1.872V589.543a1.872,1.872,0,0,1,1.872-1.872H876.451a1.872,1.872,0,0,1,1.872,1.872V811.215a1.872,1.872,0,0,1-1.872,1.872" transform="translate(-520.693 -587.671)" fill="#eceef1"></path><path id="Path_27199" data-name="Path 27199" d="M1250.671,1713.717a8.263,8.263,0,0,1-8.109,6.755h-61.839a8.28,8.28,0,0,1-8.109-6.755Z" transform="translate(-1032.569 -1471.821)" fill="#c1c1c0"></path></g><rect id="Rectangle_17079" data-name="Rectangle 17079" width="145.135" height="95.844" transform="translate(680.919 582.573)" fill="#fff"></rect><path id="Path_47049" data-name="Path 47049" d="M470.141,144.145a16.613,16.613,0,1,0,16.613,16.612,16.612,16.612,0,0,0-16.613-16.612m0,26.672A10.059,10.059,0,1,1,480.2,160.757a10.06,10.06,0,0,1-10.059,10.059" transform="translate(240.888 449.739)" fill="#ffd255"></path><path id="Path_47050" data-name="Path 47050" d="M470.143,176.014a10.058,10.058,0,0,1-10.052-9.754h-6.554a16.608,16.608,0,0,0,33.211,0h-6.554a10.057,10.057,0,0,1-10.051,9.754" transform="translate(240.885 444.541)" fill="#009081"></path><path id="Path_47051" data-name="Path 47051" d="M484.954,146.9l-2.868,5.911a10.053,10.053,0,0,1,4.826,8.592c0,.1,0,.2-.008.3h6.554c0-.1.008-.2.008-.3a16.6,16.6,0,0,0-8.512-14.5" transform="translate(234.176 449.091)" fill="#ea555f"></path><path id="Path_47052" data-name="Path 47052" d="M521.544,144.145a16.613,16.613,0,1,0,16.613,16.612,16.612,16.612,0,0,0-16.613-16.612m0,26.672A10.059,10.059,0,1,1,531.6,160.757a10.06,10.06,0,0,1-10.059,10.059" transform="translate(228.807 449.739)" fill="#009081"></path><path id="Path_47053" data-name="Path 47053" d="M523.9,150.7a10.025,10.025,0,0,1,7.456,3.315L536.2,149.6a16.6,16.6,0,0,0-21.237-2.841l4.057,5.214A9.992,9.992,0,0,1,523.9,150.7" transform="translate(226.449 449.739)" fill="#06233d"></path><path id="Path_47054" data-name="Path 47054" d="M545.536,161.823a16.553,16.553,0,0,0-4.3-10.55l-4.843,4.415a10.021,10.021,0,0,1,2.584,6.134Z" transform="translate(221.412 448.064)" fill="#06233d"></path><path id="Path_47055" data-name="Path 47055" d="M516.663,152.773l-4.057-5.213a16.6,16.6,0,0,0-7.658,13.39c-.008.2-.016.405-.016.61a16.553,16.553,0,0,0,4.365,11.221l4.843-4.415a10.019,10.019,0,0,1-2.654-6.806c0-.205.008-.408.02-.61a10.051,10.051,0,0,1,5.157-8.177" transform="translate(228.807 448.936)" fill="#ea555f"></path><path id="Path_47056" data-name="Path 47056" d="M545.511,165.674c0-.2-.008-.407-.015-.61h-6.559c.012.2.021.4.021.61a10.021,10.021,0,0,1-2.737,6.893l4.054,5.208a16.562,16.562,0,0,0,5.237-12.1" transform="translate(221.453 444.823)" fill="#06233d"></path><path id="Path_47057" data-name="Path 47057" d="M572.947,144.145a16.613,16.613,0,1,0,16.613,16.612,16.612,16.612,0,0,0-16.613-16.612m0,26.672a10.059,10.059,0,1,1,10.059-10.059,10.06,10.06,0,0,1-10.059,10.059" transform="translate(216.726 449.739)" fill="#009081"></path><path id="Path_47058" data-name="Path 47058" d="M589.735,162.08a10.051,10.051,0,0,1-4.772,8.557l4.569,4.815a16.611,16.611,0,0,0,1.3-25.68l-4.729,4.572a10.038,10.038,0,0,1,3.631,7.736" transform="translate(209.998 448.416)" fill="#06233d"></path><rect id="Rectangle_17080" data-name="Rectangle 17080" width="18.62" height="2.743" transform="translate(689.689 657.631)" fill="#faa701"></rect><rect id="Rectangle_17081" data-name="Rectangle 17081" width="9.597" height="1.117" transform="translate(689.689 663.691)" fill="#a4b0bc"></rect><rect id="Rectangle_17082" data-name="Rectangle 17082" width="6.128" height="1.117" transform="translate(700.85 663.691)" fill="#a4b0bc"></rect><path id="Path_47059" data-name="Path 47059" d="M462.181,239.291v.744h-.626v-.744h-9.91v1.117h14.761v-1.117Z" transform="translate(241.33 427.378)" fill="#a4b0bc"></path><rect id="Rectangle_17083" data-name="Rectangle 17083" width="2.504" height="1.117" transform="translate(689.689 666.669)" fill="#a4b0bc"></rect><rect id="Rectangle_17084" data-name="Rectangle 17084" width="2.347" height="1.117" transform="translate(708.31 666.668)" fill="#a4b0bc"></rect><rect id="Rectangle_17085" data-name="Rectangle 17085" width="19.406" height="1.117" transform="translate(689.689 669.646)" fill="#a4b0bc"></rect><rect id="Rectangle_17086" data-name="Rectangle 17086" width="14.135" height="1.117" transform="translate(689.689 672.624)" fill="#a4b0bc"></rect><rect id="Rectangle_17087" data-name="Rectangle 17087" width="5.894" height="1.117" transform="translate(704.763 672.623)" fill="#a4b0bc"></rect><rect id="Rectangle_17088" data-name="Rectangle 17088" width="11.661" height="2.769" transform="translate(704.826 632.342)" fill="#92a1ad"></rect><rect id="Rectangle_17089" data-name="Rectangle 17089" width="11.712" height="0.765" transform="translate(704.801 637.356)" fill="#ffd255"></rect><rect id="Rectangle_17090" data-name="Rectangle 17090" width="11.712" height="0.765" transform="translate(704.801 640.553)" fill="#ffd255"></rect><rect id="Rectangle_17091" data-name="Rectangle 17091" width="11.661" height="2.769" transform="translate(744.52 632.342)" fill="#92a1ad"></rect><rect id="Rectangle_17092" data-name="Rectangle 17092" width="11.712" height="0.765" transform="translate(744.494 637.356)" fill="#ffd255"></rect><rect id="Rectangle_17093" data-name="Rectangle 17093" width="11.712" height="0.765" transform="translate(744.494 640.553)" fill="#ffd255"></rect><rect id="Rectangle_17094" data-name="Rectangle 17094" width="11.661" height="2.769" transform="translate(784.215 632.342)" fill="#92a1ad"></rect><rect id="Rectangle_17095" data-name="Rectangle 17095" width="11.713" height="0.765" transform="translate(784.19 637.356)" fill="#ffd255"></rect><rect id="Rectangle_17096" data-name="Rectangle 17096" width="11.713" height="0.765" transform="translate(784.19 640.553)" fill="#ffd255"></rect><rect id="Rectangle_17097" data-name="Rectangle 17097" width="157.986" height="176.901" transform="translate(498.287 534.147)" fill="#fff"></rect><rect id="Rectangle_17098" data-name="Rectangle 17098" width="40.236" height="4.593" transform="translate(527.546 539.898)" fill="#e8e9eb"></rect><rect id="Rectangle_17099" data-name="Rectangle 17099" width="17.645" height="4.593" transform="translate(626.363 539.898)" fill="#e8e9eb"></rect><rect id="Rectangle_17100" data-name="Rectangle 17100" width="17.645" height="1.512" transform="translate(626.363 550.578)" fill="#e8e9eb"></rect><path id="Path_47060" data-name="Path 47060" d="M241.526,152.292a11.694,11.694,0,1,0,11.694,11.694,11.694,11.694,0,0,0-11.694-11.694m0,18.775a7.081,7.081,0,1,1,7.081-7.081,7.081,7.081,0,0,1-7.081,7.081" transform="translate(281.197 482.371)" fill="#06233d"></path><path id="Path_47061" data-name="Path 47061" d="M243.684,161.474a4.67,4.67,0,1,0,4.67,4.669,4.67,4.67,0,0,0-4.67-4.669m0,8.785a4.115,4.115,0,1,1,4.115-4.116,4.115,4.115,0,0,1-4.115,4.116" transform="translate(279.039 480.213)" fill="#06233d"></path><path id="Path_47062" data-name="Path 47062" d="M275.417,152.292a11.694,11.694,0,1,0,11.694,11.694,11.694,11.694,0,0,0-11.694-11.694m0,18.775a7.081,7.081,0,1,1,7.081-7.081,7.081,7.081,0,0,1-7.081,7.081" transform="translate(273.231 482.371)" fill="#06233d"></path><path id="Path_47063" data-name="Path 47063" d="M277.575,161.474a4.67,4.67,0,1,0,4.671,4.669,4.67,4.67,0,0,0-4.671-4.669m0,8.785a4.115,4.115,0,1,1,4.115-4.116,4.114,4.114,0,0,1-4.115,4.116" transform="translate(271.073 480.213)" fill="#06233d"></path><path id="Path_47064" data-name="Path 47064" d="M234.535,203.822l-.288-.708,39.994-16.286,8.691,3.84,10.708-15.444,7.189,4.518,7.8-11.2.627.438-8.218,11.8-7.188-4.518L283.2,191.622l-8.972-3.964Z" transform="translate(280.159 478.553)" fill="#ea555f"></path><rect id="Rectangle_17101" data-name="Rectangle 17101" width="7.016" height="28.066" transform="translate(526.651 673.615)" fill="#009081"></rect><rect id="Rectangle_17102" data-name="Rectangle 17102" width="7.016" height="23.711" transform="translate(538.022 677.97)" fill="#009081"></rect><rect id="Rectangle_17103" data-name="Rectangle 17103" width="7.016" height="28.792" transform="translate(549.394 672.888)" fill="#009081"></rect><rect id="Rectangle_17104" data-name="Rectangle 17104" width="7.016" height="20.807" transform="translate(560.766 680.873)" fill="#009081"></rect><rect id="Rectangle_17105" data-name="Rectangle 17105" width="7.016" height="40.405" transform="translate(572.137 661.276)" fill="#009081"></rect><rect id="Rectangle_17106" data-name="Rectangle 17106" width="7.016" height="44.275" transform="translate(583.507 657.404)" fill="#009081"></rect><rect id="Rectangle_17107" data-name="Rectangle 17107" width="9.141" height="69.515" transform="translate(529.331 558.915)" fill="#e8e9eb"></rect><rect id="Rectangle_17108" data-name="Rectangle 17108" width="9.141" height="69.515" transform="translate(542.609 558.915)" fill="#e8e9eb"></rect><rect id="Rectangle_17109" data-name="Rectangle 17109" width="9.141" height="69.515" transform="translate(555.889 558.915)" fill="#e8e9eb"></rect><rect id="Rectangle_17110" data-name="Rectangle 17110" width="9.141" height="69.515" transform="translate(569.167 558.915)" fill="#e8e9eb"></rect><rect id="Rectangle_17111" data-name="Rectangle 17111" width="9.141" height="69.515" transform="translate(582.445 558.915)" fill="#e8e9eb"></rect><rect id="Rectangle_17112" data-name="Rectangle 17112" width="9.141" height="69.515" transform="translate(595.725 558.915)" fill="#e8e9eb"></rect><rect id="Rectangle_17113" data-name="Rectangle 17113" width="9.141" height="69.515" transform="translate(609.003 558.915)" fill="#e8e9eb"></rect><rect id="Rectangle_17114" data-name="Rectangle 17114" width="9.141" height="69.515" transform="translate(622.282 558.915)" fill="#e8e9eb"></rect><rect id="Rectangle_17115" data-name="Rectangle 17115" width="9.141" height="69.515" transform="translate(635.56 558.915)" fill="#e8e9eb"></rect><rect id="Rectangle_17116" data-name="Rectangle 17116" width="1.147" height="64.444" transform="translate(532.148 563.569)" fill="#fff"></rect><rect id="Rectangle_17117" data-name="Rectangle 17117" width="1.147" height="64.444" transform="translate(545.533 563.569)" fill="#fff"></rect><rect id="Rectangle_17118" data-name="Rectangle 17118" width="1.147" height="64.444" transform="translate(558.919 563.569)" fill="#fff"></rect><rect id="Rectangle_17119" data-name="Rectangle 17119" width="1.147" height="64.444" transform="translate(572.306 563.569)" fill="#fff"></rect><rect id="Rectangle_17120" data-name="Rectangle 17120" width="1.147" height="64.444" transform="translate(585.692 563.569)" fill="#fff"></rect><rect id="Rectangle_17121" data-name="Rectangle 17121" width="1.147" height="64.444" transform="translate(599.077 563.569)" fill="#fff"></rect><rect id="Rectangle_17122" data-name="Rectangle 17122" width="1.147" height="64.444" transform="translate(612.464 563.569)" fill="#fff"></rect><rect id="Rectangle_17123" data-name="Rectangle 17123" width="1.147" height="64.444" transform="translate(625.85 563.569)" fill="#fff"></rect><rect id="Rectangle_17124" data-name="Rectangle 17124" width="1.147" height="64.444" transform="translate(639.236 563.569)" fill="#fff"></rect><rect id="Rectangle_17125" data-name="Rectangle 17125" width="4.207" height="32.126" transform="translate(530.618 595.886)" fill="#ea555f"></rect><rect id="Rectangle_17126" data-name="Rectangle 17126" width="4.207" height="32.126" transform="translate(544.003 595.886)" fill="#ea555f"></rect><rect id="Rectangle_17127" data-name="Rectangle 17127" width="4.207" height="21.705" transform="translate(557.389 606.308)" fill="#ea555f"></rect><rect id="Rectangle_17128" data-name="Rectangle 17128" width="4.207" height="43.409" transform="translate(570.776 584.604)" fill="#ea555f"></rect><rect id="Rectangle_17129" data-name="Rectangle 17129" width="4.207" height="9.07" transform="translate(570.776 584.603)" fill="#009081"></rect><rect id="Rectangle_17130" data-name="Rectangle 17130" width="4.207" height="50.102" transform="translate(584.162 577.911)" fill="#ea555f"></rect><rect id="Rectangle_17131" data-name="Rectangle 17131" width="4.207" height="32.126" transform="translate(597.547 595.886)" fill="#ea555f"></rect><rect id="Rectangle_17132" data-name="Rectangle 17132" width="4.207" height="45.321" transform="translate(610.933 582.692)" fill="#ea555f"></rect><rect id="Rectangle_17133" data-name="Rectangle 17133" width="4.207" height="3.082" transform="translate(610.933 582.692)" fill="#009081"></rect><rect id="Rectangle_17134" data-name="Rectangle 17134" width="4.207" height="40.35" transform="translate(624.32 587.663)" fill="#ea555f"></rect><rect id="Rectangle_17135" data-name="Rectangle 17135" width="4.207" height="32.126" transform="translate(637.706 595.886)" fill="#ea555f"></rect><rect id="Rectangle_17136" data-name="Rectangle 17136" width="8.598" height="2.49" transform="translate(516.295 625.258)" fill="#e8e9eb"></rect><rect id="Rectangle_17137" data-name="Rectangle 17137" width="8.598" height="2.49" transform="translate(516.295 614.976)" fill="#e8e9eb"></rect><rect id="Rectangle_17138" data-name="Rectangle 17138" width="8.598" height="2.49" transform="translate(516.295 604.695)" fill="#e8e9eb"></rect><rect id="Rectangle_17139" data-name="Rectangle 17139" width="8.598" height="2.49" transform="translate(516.295 594.413)" fill="#e8e9eb"></rect><rect id="Rectangle_17140" data-name="Rectangle 17140" width="8.598" height="2.49" transform="translate(516.295 584.131)" fill="#e8e9eb"></rect><rect id="Rectangle_17141" data-name="Rectangle 17141" width="8.598" height="2.49" transform="translate(516.295 573.85)" fill="#e8e9eb"></rect><rect id="Rectangle_17142" data-name="Rectangle 17142" width="8.598" height="2.49" transform="translate(516.295 563.569)" fill="#e8e9eb"></rect><rect id="Rectangle_17143" data-name="Rectangle 17143" width="9.141" height="0.978" transform="translate(529.331 555.627)" fill="#a4b0bc"></rect><rect id="Rectangle_17144" data-name="Rectangle 17144" width="9.141" height="0.978" transform="translate(542.609 555.627)" fill="#a4b0bc"></rect><rect id="Rectangle_17145" data-name="Rectangle 17145" width="9.141" height="0.978" transform="translate(555.889 555.627)" fill="#a4b0bc"></rect><rect id="Rectangle_17146" data-name="Rectangle 17146" width="9.141" height="0.978" transform="translate(569.167 555.627)" fill="#a4b0bc"></rect><rect id="Rectangle_17147" data-name="Rectangle 17147" width="9.141" height="0.978" transform="translate(582.445 555.627)" fill="#a4b0bc"></rect><rect id="Rectangle_17148" data-name="Rectangle 17148" width="9.141" height="0.978" transform="translate(595.725 555.627)" fill="#a4b0bc"></rect><rect id="Rectangle_17149" data-name="Rectangle 17149" width="9.141" height="0.978" transform="translate(609.003 555.627)" fill="#a4b0bc"></rect><rect id="Rectangle_17150" data-name="Rectangle 17150" width="9.141" height="0.978" transform="translate(622.282 555.627)" fill="#a4b0bc"></rect><rect id="Rectangle_17151" data-name="Rectangle 17151" width="9.141" height="0.978" transform="translate(635.56 555.627)" fill="#a4b0bc"></rect><rect id="Rectangle_17152" data-name="Rectangle 17152" width="93.106" height="61.485" transform="translate(680.917 509.313)" fill="#fff"></rect><rect id="Rectangle_17153" data-name="Rectangle 17153" width="7.999" height="22.514" transform="translate(689.919 537.855)" fill="#2db7a9"></rect><rect id="Rectangle_17154" data-name="Rectangle 17154" width="7.999" height="15.674" transform="translate(699.991 544.695)" fill="#2db7a9"></rect><rect id="Rectangle_17155" data-name="Rectangle 17155" width="7.999" height="31.347" transform="translate(710.063 529.022)" fill="#2db7a9"></rect><rect id="Rectangle_17156" data-name="Rectangle 17156" width="7.999" height="22.514" transform="translate(720.135 537.855)" fill="#2db7a9"></rect><rect id="Rectangle_17157" data-name="Rectangle 17157" width="7.999" height="31.347" transform="translate(730.206 529.022)" fill="#2db7a9"></rect><rect id="Rectangle_17158" data-name="Rectangle 17158" width="7.999" height="28.857" transform="translate(740.278 531.512)" fill="#2db7a9"></rect><rect id="Rectangle_17159" data-name="Rectangle 17159" width="7.999" height="35.096" transform="translate(750.351 525.273)" fill="#2db7a9"></rect><rect id="Rectangle_17160" data-name="Rectangle 17160" width="7.999" height="2.253" transform="translate(689.919 558.115)" fill="#009081"></rect><rect id="Rectangle_17161" data-name="Rectangle 17161" width="7.999" height="9.012" transform="translate(699.991 551.356)" fill="#009081"></rect><rect id="Rectangle_17162" data-name="Rectangle 17162" width="7.999" height="4.506" transform="translate(710.063 555.862)" fill="#009081"></rect><rect id="Rectangle_17163" data-name="Rectangle 17163" width="7.999" height="9.012" transform="translate(720.135 551.356)" fill="#009081"></rect><rect id="Rectangle_17164" data-name="Rectangle 17164" width="7.999" height="14.428" transform="translate(730.206 545.939)" fill="#009081"></rect><rect id="Rectangle_17165" data-name="Rectangle 17165" width="7.999" height="9.012" transform="translate(740.28 551.356)" fill="#009081"></rect><rect id="Rectangle_17166" data-name="Rectangle 17166" width="7.999" height="22.514" transform="translate(750.351 537.854)" fill="#009081"></rect><rect id="Rectangle_17167" data-name="Rectangle 17167" width="12.634" height="1.861" transform="translate(755.536 512.078)" fill="#06233d"></rect><rect id="Rectangle_17168" data-name="Rectangle 17168" width="6.512" height="0.757" transform="translate(755.536 516.189)" fill="#a4b0bc"></rect><rect id="Rectangle_17169" data-name="Rectangle 17169" width="4.158" height="0.757" transform="translate(763.109 516.189)" fill="#a4b0bc"></rect><path id="Path_47065" data-name="Path 47065" d="M543.489,45.221v.5h-.425v-.5H536.34v.757h10.015v-.757Z" transform="translate(221.425 472.988)" fill="#a4b0bc"></path><rect id="Rectangle_17170" data-name="Rectangle 17170" width="1.699" height="0.757" transform="translate(755.536 518.209)" fill="#a4b0bc"></rect><rect id="Rectangle_17171" data-name="Rectangle 17171" width="1.593" height="0.757" transform="translate(768.17 518.21)" fill="#a4b0bc"></rect><path id="Path_47066" data-name="Path 47066" d="M454.417,52.27H449.51a.779.779,0,0,1-.78-.78v-.015a.78.78,0,0,1,.78-.78h4.907a.78.78,0,0,1,.78.78v.015a.779.779,0,0,1-.78.78" transform="translate(242.015 471.702)" fill="#06233d"></path><path id="Path_47067" data-name="Path 47067" d="M467.5,52.27H462.6a.779.779,0,0,1-.78-.78v-.015a.78.78,0,0,1,.78-.78H467.5a.78.78,0,0,1,.779.78v.015a.779.779,0,0,1-.779.78" transform="translate(238.939 471.702)" fill="#06233d"></path><path id="Path_47068" data-name="Path 47068" d="M480.671,52.27h-4.907a.779.779,0,0,1-.78-.78v-.015a.78.78,0,0,1,.78-.78h4.907a.78.78,0,0,1,.78.78v.015a.779.779,0,0,1-.78.78" transform="translate(235.845 471.702)" fill="#06233d"></path><path id="Path_47069" data-name="Path 47069" d="M493.838,52.27h-4.907a.779.779,0,0,1-.78-.78v-.015a.78.78,0,0,1,.78-.78h4.907a.78.78,0,0,1,.78.78v.015a.779.779,0,0,1-.78.78" transform="translate(232.751 471.702)" fill="#06233d"></path><path id="Path_47070" data-name="Path 47070" d="M507,52.27H502.1a.779.779,0,0,1-.779-.78v-.015a.78.78,0,0,1,.779-.78H507a.78.78,0,0,1,.78.78v.015a.779.779,0,0,1-.78.78" transform="translate(229.656 471.702)" fill="#06233d"></path><path id="Path_47071" data-name="Path 47071" d="M520.17,52.27h-4.907a.779.779,0,0,1-.78-.78v-.015a.78.78,0,0,1,.78-.78h4.907a.78.78,0,0,1,.779.78v.015a.779.779,0,0,1-.779.78" transform="translate(226.562 471.702)" fill="#06233d"></path><path id="Path_47072" data-name="Path 47072" d="M533.1,52.27h-4.907a.779.779,0,0,1-.779-.78v-.015a.78.78,0,0,1,.779-.78H533.1a.78.78,0,0,1,.779.78v.015a.779.779,0,0,1-.779.78" transform="translate(223.523 471.702)" fill="#06233d"></path><g id="Group_24347" data-name="Group 24347" transform="translate(510.551 617.163)"><g id="Group_10073" data-name="Group 10073" transform="translate(0 0)"><g id="Group_24348" data-name="Group 24348"><path id="Path_14407" data-name="Path 14407" d="M70.879,254.756,39.272,304.629,55.5,314.911,87.1,265.038c.927-1.461-1.972-4.977-6.435-7.805a22.61,22.61,0,0,0-6.214-2.844c-1.787-.459-3.11-.366-3.575.367" transform="translate(38.517 -128)" fill="#b2b2b2"></path><path id="Path_14408" data-name="Path 14408" d="M87.665,249.3a15.912,15.912,0,1,0,15.9-15.376,15.646,15.646,0,0,0-15.9,15.376" transform="translate(14.14 -117.834)" fill="#343849"></path><path id="Path_14409" data-name="Path 14409" d="M25.091,4.251,19.109,62.993a91.824,91.824,0,0,0-9.5-1.463A92.253,92.253,0,0,0,0,61.046L5.982,2.305C6.157.584,10.608-.388,15.865.147a22.6,22.6,0,0,1,6.643,1.606c1.688.743,2.671,1.634,2.583,2.5" transform="translate(89.243 162.515) rotate(60)" fill="#b2b2b2"></path><path id="Path_14410" data-name="Path 14410" d="M41.93,358.926a13.828,13.828,0,1,1,17.918-6.966,13.6,13.6,0,0,1-17.918,6.966" transform="translate(41.04 -167.551)" fill="#343849"></path><path id="Path_14411" data-name="Path 14411" d="M10.6,3.306A20.6,20.6,0,0,1,42.277,22.728L41.006,35.054l-8.885-.916,1.271-12.325a11.679,11.679,0,1,0-23.235-2.4L8.885,31.74,0,30.823,1.271,18.5A20.582,20.582,0,0,1,10.6,3.306" transform="translate(30.357 179.763) rotate(60)" fill="#343849"></path><path id="Path_14412" data-name="Path 14412" d="M276.034,250.157l46.725,36.1-11.744,15.2-46.724-36.1c-1.369-1.058.156-5.351,3.386-9.533a22.591,22.591,0,0,1,4.872-4.793c1.523-1.041,2.8-1.405,3.486-.875" transform="translate(-74.577 -125.887)" fill="#b2b2b2"></path><path id="Path_14413" data-name="Path 14413" d="M274.824,243.945a15.912,15.912,0,1,1-20.194-9.028,15.646,15.646,0,0,1,20.194,9.028" transform="translate(-64.624 -117.834)" fill="#343849"></path><path id="Path_14414" data-name="Path 14414" d="M353,274.723l19.012-55.9a93.707,93.707,0,0,0,18.186,6.185l-19.012,55.9c-.557,1.638-5.114,1.586-10.116-.115a22.59,22.59,0,0,1-6.113-3.056c-1.478-1.1-2.236-2.192-1.957-3.014" transform="translate(-119.488 -110.226)" fill="#b2b2b2"></path><path id="Path_14415" data-name="Path 14415" d="M366.1,309.21a13.829,13.829,0,1,1-19.024,2.767A13.6,13.6,0,0,1,366.1,309.21" transform="translate(-115.037 -154.388)" fill="#343849"></path><path id="Path_14416" data-name="Path 14416" d="M408.5,191.031a20.6,20.6,0,0,1-26.516-26.037l4.005-11.726,8.453,2.887-4,11.726a11.679,11.679,0,1,0,22.1,7.55l4.005-11.726L425,166.594,421,178.32a20.582,20.582,0,0,1-12.5,12.712" transform="translate(-133.558 -77.205)" fill="#343849"></path><rect id="Rectangle_3953" data-name="Rectangle 3953" width="33.065" height="26.927" transform="translate(141.15 96.097)" fill="#d1d1d1"></rect><rect id="Rectangle_3954" data-name="Rectangle 3954" width="33.065" height="8.133" transform="translate(141.15 114.891)" fill="#343849"></rect><rect id="Rectangle_3955" data-name="Rectangle 3955" width="33.065" height="12.246" transform="translate(141.15 96.097)" fill="#343849"></rect><path id="Path_14417" data-name="Path 14417" d="M183.154,263.653h-31.46a16.668,16.668,0,0,0-16.619,16.619V302.45a16.668,16.668,0,0,0,16.619,16.619h31.46a16.668,16.668,0,0,0,16.619-16.619V280.272a16.668,16.668,0,0,0-16.619-16.619" transform="translate(-9.741 -132.808)" fill="#343849"></path><path id="Path_14418" data-name="Path 14418" d="M159.878,354.746h-4.149a39.5,39.5,0,0,1-39.5-39.5V263.338a19.405,19.405,0,0,1,19.406-19.405h44.342a19.406,19.406,0,0,1,19.405,19.405v51.905a39.5,39.5,0,0,1-39.5,39.5" transform="translate(-0.247 -122.874)" fill="#d1d1d1"></path><path id="Path_14419" data-name="Path 14419" d="M175.562,347.388h-7.389a23.508,23.508,0,0,1-23.509-23.508V283.493a9.409,9.409,0,0,1,9.41-9.409h35.587a9.409,9.409,0,0,1,9.409,9.409V323.88a23.508,23.508,0,0,1-23.508,23.508" transform="translate(-14.572 -138.062)" fill="#343849"></path><path id="Path_14420" data-name="Path 14420" d="M198.919,39.066h-1.563a1.547,1.547,0,0,1-1.547-1.547V15.985a1.547,1.547,0,0,1,1.547-1.547h1.563a1.547,1.547,0,0,1,1.547,1.547V37.518a1.547,1.547,0,0,1-1.547,1.547" transform="translate(-40.335 -7.272)" fill="#d1d1d1"></path><path id="Path_14421" data-name="Path 14421" d="M200.419,5.5A5.5,5.5,0,1,1,194.914,0a5.5,5.5,0,0,1,5.505,5.5" transform="translate(-37.111 0.001)" fill="#e75660"></path><path id="Path_14422" data-name="Path 14422" d="M192.816,75.482v-13.3A18.376,18.376,0,0,0,174.44,43.81H116.234A18.377,18.377,0,0,0,97.857,62.187v13.3a8.071,8.071,0,0,0-6.87,7.98V99.735a8.071,8.071,0,0,0,6.87,7.981v5.219a12.333,12.333,0,0,0,12.333,12.333h70.292a12.333,12.333,0,0,0,12.334-12.333v-5.219a8.071,8.071,0,0,0,6.871-7.981V83.462a8.071,8.071,0,0,0-6.871-7.98" transform="translate(12.467 -22.068)" fill="#d1d1d1"></path><path id="Path_14423" data-name="Path 14423" d="M186.943,115.416H130.686a12.942,12.942,0,0,1-12.942-12.942V84.4a12.942,12.942,0,0,1,12.942-12.942h56.256A12.942,12.942,0,0,1,199.885,84.4v18.077a12.942,12.942,0,0,1-12.942,12.942" transform="translate(-1.012 -35.993)" fill="#333949"></path><path id="Path_14424" data-name="Path 14424" d="M149.674,87.443a14.606,14.606,0,1,1-14.606,14.606A14.623,14.623,0,0,1,149.674,87.443Zm0,23.2a8.6,8.6,0,1,0-8.6-8.6A8.606,8.606,0,0,0,149.674,110.646Z" transform="translate(-10.51 -44.818)" fill="#35a398"></path><path id="Path_14425" data-name="Path 14425" d="M225.784,87.443a14.606,14.606,0,1,1-14.606,14.606A14.623,14.623,0,0,1,225.784,87.443Zm0,23.2a8.6,8.6,0,1,0-8.6-8.6A8.606,8.606,0,0,0,225.784,110.646Z" transform="translate(-48.848 -44.818)" fill="#35a398"></path><path id="Path_14426" data-name="Path 14426" d="M91.843,139.59H87.553a8.492,8.492,0,0,1-8.492-8.492V115.536a8.492,8.492,0,0,1,8.492-8.492h4.289Z" transform="translate(18.474 -53.92)" fill="#333949"></path><path id="Path_14427" data-name="Path 14427" d="M296.208,139.59H300.5a8.492,8.492,0,0,0,8.492-8.492V115.536a8.492,8.492,0,0,0-8.492-8.492h-4.289Z" transform="translate(-90.908 -53.92)" fill="#333949"></path></g></g><path id="Path_27187" data-name="Path 27187" d="M29.207,31c0,6.435-6.538,11.652-14.6,11.652S0,37.435,0,31Z" transform="translate(143.296 55.357)" fill="#ea555f"></path></g></g></svg> 